<?xml version="1.0" ?><svg xmlns="http://www.w3.org/2000/svg" width="24" height="24" viewBox="0 0 24 24" fill="none"><g id="letter-s"><g id="outline" filter="url(#filter0_d_1701_1343)"><path d="M5.32051 14C5.1435 14 5 14.1435 5 14.3205V20C5 20.5523 5.44772 21 6 21H13.75C17.2018 21 20 18.2018 20 14.75C20 13.1609 19.407 11.7104 18.4302 10.6076C18.2328 10.3848 18.3818 10 18.6795 10C18.8565 10 19 9.8565 19 9.67949V4C19 3.44772 18.5523 3 18 3H10.25C6.79822 3 4 5.79822 4 9.25C4 10.8391 4.59303 12.2896 5.56984 13.3924C5.76721 13.6152 5.61818 14 5.32051 14Z" fill="white"/></g><path id="icon" d="M10.25 8C9.55964 8 9 8.55964 9 9.25C9 9.94036 9.55964 10.5 10.25 10.5H13.75C16.0972 10.5 18 12.4028 18 14.75C18 17.0972 16.0972 19 13.75 19H7V16H13.75C14.4404 16 15 15.4404 15 14.75C15 14.0596 14.4404 13.5 13.75 13.5H10.25C7.90279 13.5 6 11.5972 6 9.25C6 6.90279 7.90279 5 10.25 5H17V8H10.25Z" fill="#1452CC"/></g><defs><filter id="filter0_d_1701_1343" x="2" y="1.5" width="20" height="22" filterUnits="userSpaceOnUse" color-interpolation-filters="sRGB"><feFlood flood-opacity="0" result="BackgroundImageFix"/><feColorMatrix in="SourceAlpha" type="matrix" values="0 0 0 0 0 0 0 0 0 0 0 0 0 0 0 0 0 0 127 0" result="hardAlpha"/><feOffset dy="0.5"/><feGaussianBlur stdDeviation="1"/><feComposite in2="hardAlpha" operator="out"/><feColorMatrix type="matrix" values="0 0 0 0 0 0 0 0 0 0 0 0 0 0 0 0 0 0 0.25 0"/><feBlend mode="normal" in2="BackgroundImageFix" result="effect1_dropShadow_1701_1343"/><feBlend mode="normal" in="SourceGraphic" in2="effect1_dropShadow_1701_1343" result="shape"/></filter></defs></svg>